<mxfile host="app.diagrams.net" modified="2024-06-06T03:34:58.645Z" agent="Mozilla/5.0 (Windows NT 10.0; Win64; x64) AppleWebKit/537.36 (KHTML, like Gecko) Chrome/125.0.0.0 Safari/537.36" version="24.4.13" etag="BNzo9y7lPDDu2egQ7VY6" type="github">
  <diagram name="第 1 页" id="KYFXbRSGLfNvGEryk3Jg">
    <mxGraphModel>
      <root>
        <mxCell id="0" />
        <mxCell id="1" parent="0" />
      </root>
    </mxGraphModel>
  </diagram>
</mxfile>
